HIERARCHY
ROOT Hips
{
	OFFSET 0.000000 0.000000 0.000000
	CHANNELS 6 Xposition Yposition Zposition Xrotation Yrotation Zrotation
	JOINT LeftUpLeg_virtual
	{
		OFFSET 0.000000 0.000000 0.000000
		CHANNELS 3 Xrotation Yrotation Zrotation
		JOINT LeftUpLeg
		{
			OFFSET 13.026900 -6.336304 -1.092800
			CHANNELS 3 Xrotation Yrotation Zrotation
			JOINT LeftLeg
			{
				OFFSET 0.524474 -46.096886 9.782700
				CHANNELS 3 Xrotation Yrotation Zrotation
				JOINT LeftFoot
				{
					OFFSET -0.524474 -53.427422 -12.948200
					CHANNELS 3 Xrotation Yrotation Zrotation
					JOINT LeftToeBase
					{
						OFFSET 0.192200 -14.009700 16.364100
						CHANNELS 3 Xrotation Yrotation Zrotation
						JOINT LeftToe_End
						{
							OFFSET -1.784700 -0.561700 9.474800
							CHANNELS 3 Xrotation Yrotation Zrotation
							End Site
							{
								OFFSET 0 0 0
							}
						}
					}
				}
			}
		}
	}
	JOINT RightUpLeg_virtual
	{
		OFFSET 0.000000 0.000000 0.000000
		CHANNELS 3 Xrotation Yrotation Zrotation
		JOINT RightUpLeg
		{
			OFFSET -12.883000 -6.336304 -1.092800
			CHANNELS 3 Xrotation Yrotation Zrotation
			JOINT RightLeg
			{
				OFFSET -0.524587 -46.096825 9.782800
				CHANNELS 3 Xrotation Yrotation Zrotation
				JOINT RightFoot
				{
					OFFSET 0.524587 -53.427383 -12.948300
					CHANNELS 3 Xrotation Yrotation Zrotation
					JOINT RightToeBase
					{
						OFFSET -0.192200 -14.009700 16.364100
						CHANNELS 3 Xrotation Yrotation Zrotation
						JOINT RightToe_End
						{
							OFFSET 1.784700 -0.561700 9.474800
							CHANNELS 3 Xrotation Yrotation Zrotation
							End Site
							{
								OFFSET 0 0 0
							}
						}
					}
				}
			}
		}
	}
	JOINT Spine_virtual
	{
		OFFSET 0.000000 0.000000 0.000000
		CHANNELS 3 Xrotation Yrotation Zrotation
		JOINT Spine
		{
			OFFSET 0.072000 7.257294 -0.789700
			CHANNELS 3 Xrotation Yrotation Zrotation
			JOINT Spine1
			{
				OFFSET 0.000000 12.508769 -0.658067
				CHANNELS 3 Xrotation Yrotation Zrotation
				JOINT Spine1_split
				{
					OFFSET 0.000000 12.508769 -0.658067
					CHANNELS 3 Xrotation Yrotation Zrotation
					JOINT Spine2
					{
						OFFSET 0.000000 12.508769 -0.658067
						CHANNELS 3 Xrotation Yrotation Zrotation
						JOINT Neck_virtual
						{
							OFFSET 0.000000 0.000000 0.000000
							CHANNELS 3 Xrotation Yrotation Zrotation
							JOINT Neck
							{
								OFFSET 0.000000 14.033295 7.520400
								CHANNELS 3 Xrotation Yrotation Zrotation
								JOINT Head
								{
									OFFSET 0.000000 8.198502 5.703100
									CHANNELS 3 Xrotation Yrotation Zrotation
									JOINT HeadTop_End
									{
										OFFSET 0.000000 17.760803 13.332701
										CHANNELS 3 Xrotation Yrotation Zrotation
										End Site
										{
											OFFSET 0 0 0
										}
									}
								}
							}
						}
						JOINT LeftShoulder_virtual
						{
							OFFSET 0.000000 0.000000 0.000000
							CHANNELS 3 Xrotation Yrotation Zrotation
							JOINT LeftShoulder
							{
								OFFSET 6.292450 5.785301 -0.669000
								CHANNELS 3 Xrotation Yrotation Zrotation
								JOINT LeftShoulder_split
								{
									OFFSET 6.292450 5.785301 -0.669000
									CHANNELS 3 Xrotation Yrotation Zrotation
									JOINT LeftArm
									{
										OFFSET 13.907140 -6.093903 1.965100
										CHANNELS 3 Xrotation Yrotation Zrotation
										JOINT LeftForeArm
										{
											OFFSET 34.140198 0.000000 0.000000
											CHANNELS 3 Xrotation Yrotation Zrotation
											JOINT LeftHand
											{
												OFFSET 40.960209 0.000000 0.000000
												CHANNELS 3 Xrotation Yrotation Zrotation
												End Site
												{
													OFFSET 0 0 0
												}
											}
										}
									}
								}
							}
						}
						JOINT RightShoulder_virtual
						{
							OFFSET 0.000000 0.000000 0.000000
							CHANNELS 3 Xrotation Yrotation Zrotation
							JOINT RightShoulder
							{
								OFFSET -6.292450 5.785301 -0.669000
								CHANNELS 3 Xrotation Yrotation Zrotation
								JOINT RightShoulder_split
								{
									OFFSET -6.292450 5.785301 -0.669000
									CHANNELS 3 Xrotation Yrotation Zrotation
									JOINT RightArm
									{
										OFFSET -13.907140 -6.093903 1.965100
										CHANNELS 3 Xrotation Yrotation Zrotation
										JOINT RightForeArm
										{
											OFFSET -34.140198 0.000000 0.000000
											CHANNELS 3 Xrotation Yrotation Zrotation
											JOINT RightHand
											{
												OFFSET -40.960209 0.000000 0.000000
												CHANNELS 3 Xrotation Yrotation Zrotation
												End Site
												{
													OFFSET 0 0 0
												}
											}
										}
									}
								}
							}
						}
					}
				}
			}
		}
	}
}
MOTION
Frames: 11
Frame Time: 0.03333333
-7.041749 99.218338 7.535461 0.000000 0.000000 0.000000 -9.503146 23.699337 10.265046 -21.761223 -9.481505 3.434828 41.234716 0.107686 0.125226 -15.476077 -4.260894 -16.953733 -0.207581 -0.223566 0.548448 0.000000 0.000000 0.000000 -9.201027 22.527777 10.146126 -17.266068 -27.526779 -29.708990 48.601201 1.317242 1.722233 -29.612487 -4.121776 10.267401 -0.307532 0.323637 -0.358417 0.000000 0.000000 0.000000 -8.281047 28.151892 10.005539 17.077623 -0.773277 2.483706 4.027749 1.552378 -1.423189 7.681971 5.509575 1.868835 0.000000 0.000000 0.000000 3.686702 0.386371 -1.222334 -13.616360 -13.743186 -5.875450 -22.925197 -9.862387 -4.337051 0.000000 0.000000 0.000000 4.458627 1.215083 -1.067397 0.701927 -11.804134 -22.554167 -7.314767 -0.911270 -4.156368 -4.724997 6.842687 -24.100304 54.558387 -63.020871 22.434859 0.000000 0.000000 0.000000 4.943752 0.071741 -1.821361 4.628167 -10.855997 -3.434207 -9.823497 0.016824 5.054504 -62.359634 -11.154376 2.500901 -126.384154 15.458738 155.125986 0.000000 0.000000 0.000000 
-7.384476 99.744492 8.218159 0.000000 0.000000 0.000000 -9.332623 23.506286 9.561120 -21.358177 -10.532115 4.044032 40.660799 -0.107759 0.290580 -15.429672 -3.812505 -17.655998 -0.008440 -0.125283 0.477178 0.000000 0.000000 0.000000 -8.834328 22.701252 9.485586 -15.788640 -27.586005 -27.723734 47.719745 1.030832 1.760320 -29.791871 -4.859338 9.570587 -0.357263 0.320137 -0.338440 0.000000 0.000000 0.000000 -8.182610 28.408411 9.144647 16.792420 -1.511798 2.316176 3.593295 0.120724 -1.601414 6.376817 3.032327 2.783363 0.000000 0.000000 0.000000 3.482621 -1.005420 -1.099105 -14.268239 -10.824983 -7.446679 -23.233155 -8.314032 -2.979326 0.000000 0.000000 0.000000 4.124237 -0.228352 -0.947807 0.976245 -9.518146 -23.053628 -8.245152 -0.514172 -4.152011 -2.950044 11.348671 -25.199802 59.172852 -63.972788 27.139473 0.000000 0.000000 0.000000 4.418658 -1.279398 -1.640452 5.129954 -12.918312 3.309114 -8.603642 0.264118 5.300167 -63.888770 -23.858981 -0.051096 -120.920604 10.669414 151.589410 0.000000 0.000000 0.000000 
-7.661961 100.343201 8.744183 0.000000 0.000000 0.000000 -8.817018 22.450878 8.639752 -20.868357 -10.936803 4.988101 40.252938 -0.113345 0.302143 -15.619710 -3.021298 -18.012915 -0.007571 -0.021952 0.383937 0.000000 0.000000 0.000000 -8.223805 22.019678 8.616762 -14.723181 -26.844187 -25.544919 46.370663 0.888746 1.738554 -29.464920 -5.614102 8.955502 -0.332373 0.327545 -0.339845 0.000000 0.000000 0.000000 -7.861298 27.981566 8.094070 16.738772 -1.930945 2.260776 3.241866 -1.119632 -1.609121 3.569849 -0.826351 2.515969 0.000000 0.000000 0.000000 3.629720 -2.187995 -0.850840 -14.691682 -8.678648 -6.952950 -23.641885 -6.533967 -2.028387 0.000000 0.000000 0.000000 4.034153 -1.443363 -0.757699 1.206706 -8.008997 -22.630278 -9.023694 -0.251946 -3.933141 -1.408800 14.179201 -26.527657 59.779735 -62.540511 27.559987 0.000000 0.000000 0.000000 3.932605 -2.457144 -1.366709 5.605734 -13.614651 7.909414 -7.186836 -0.523944 5.205329 -68.368657 -28.912273 -0.508468 -116.508848 7.602318 148.726030 0.000000 0.000000 0.000000 
-7.797073 100.891747 8.926086 0.000000 0.000000 0.000000 -8.051632 20.670674 7.631452 -20.376891 -10.651211 6.160506 40.061839 0.050681 0.206923 -16.015457 -2.022608 -17.955319 -0.172840 0.073688 0.293058 0.000000 0.000000 0.000000 -7.423074 20.494597 7.651293 -14.314390 -25.440807 -23.454996 44.797831 1.005232 1.628692 -28.564515 -6.217107 8.710533 -0.471239 0.334274 -0.362080 0.000000 0.000000 0.000000 -7.302422 26.611713 6.986778 16.954862 -1.991415 2.313777 3.014425 -1.946490 -1.550114 1.079827 -3.544684 1.154882 0.000000 0.000000 0.000000 4.050201 -2.930553 -0.657422 -14.815596 -7.281587 -4.991703 -24.315619 -4.709952 -1.449522 0.000000 0.000000 0.000000 4.118077 -2.191342 -0.625143 1.327614 -7.159411 -21.362924 -9.272530 -0.188179 -3.860112 -0.643683 15.546351 -27.572145 57.908823 -60.270696 25.580057 0.000000 0.000000 0.000000 3.498910 -3.268820 -1.170549 5.767461 -13.638180 9.991953 -5.343159 -0.850484 4.730688 -74.146327 -28.132858 -0.062861 -115.302869 5.534273 148.297600 0.000000 0.000000 0.000000 
-7.760388 101.395233 8.774364 0.000000 0.000000 0.000000 -7.118923 18.438384 6.637384 -19.988120 -9.781950 7.423692 39.988026 0.203902 0.047614 -16.480907 -1.065931 -17.642174 -0.350660 0.148925 0.218380 0.000000 0.000000 0.000000 -6.562076 18.264430 6.683216 -14.484103 -23.653901 -21.649803 43.269665 1.287632 1.465568 -27.209131 -6.550639 8.736273 -0.779832 0.328567 -0.371819 0.000000 0.000000 0.000000 -6.590085 24.414149 6.029213 17.421678 -1.791051 2.429277 2.861934 -2.210615 -1.509668 0.105380 -3.920749 0.049390 0.000000 0.000000 0.000000 4.527511 -3.094736 -0.669400 -14.529414 -6.548598 -2.503983 -25.277786 -3.064860 -1.122827 0.000000 0.000000 0.000000 4.300453 -2.363508 -0.643663 1.346022 -6.720435 -19.812482 -8.923012 -0.239451 -3.725326 -0.454544 15.980095 -28.242842 56.009184 -58.730290 23.856085 0.000000 0.000000 0.000000 3.270449 -3.577056 -1.135576 5.742838 -13.455205 9.854619 -3.750214 -0.539567 4.473005 -79.210373 -24.081852 0.605186 -117.427358 4.341563 150.515950 0.000000 0.000000 0.000000 
-7.543970 101.855042 8.296387 0.000000 0.000000 0.000000 -6.195845 16.181866 5.796192 -19.769332 -8.522731 8.610127 39.863791 0.248950 -0.140456 -16.868061 -0.379991 -17.207880 -0.399018 0.197284 0.163238 0.000000 0.000000 0.000000 -5.795741 15.709621 5.851379 -15.027045 -21.718198 -20.198174 41.996156 1.586894 1.269282 -25.693879 -6.666797 8.805679 -1.065977 0.301630 -0.323840 0.000000 0.000000 0.000000 -5.857652 21.600320 5.333576 17.977852 -1.471061 2.518181 2.780049 -1.949786 -1.509120 0.223098 -3.314726 -0.409099 0.000000 0.000000 0.000000 4.895516 -2.736551 -0.882624 -13.864800 -6.214142 -0.311351 -26.487404 -1.866757 -0.980531 0.000000 0.000000 0.000000 4.489901 -2.016939 -0.804191 1.211008 -6.544993 -18.351704 -8.080739 -0.348916 -3.661365 -0.840286 16.111381 -28.689923 54.891037 -58.542993 23.273383 0.000000 0.000000 0.000000 3.221020 -3.354317 -1.228538 5.700974 -13.261246 8.534191 -3.275782 -0.072622 4.963037 -82.192782 -19.309411 1.511117 -120.900646 4.189295 153.815355 0.000000 0.000000 0.000000 
-7.185288 102.263313 7.625492 0.000000 0.000000 0.000000 -5.484983 14.251435 5.147945 -19.657047 -7.092591 9.598745 39.599985 0.114228 -0.299641 -17.027296 -0.128374 -16.803539 -0.322867 0.218407 0.129679 0.000000 0.000000 0.000000 -5.196593 13.335004 5.212818 -15.619645 -19.788436 -19.142659 41.260012 1.726566 1.070800 -24.225096 -6.656311 8.758782 -1.182768 0.249976 -0.214162 0.000000 0.000000 0.000000 -5.224907 18.649082 4.973151 18.438862 -1.214115 2.479979 2.734508 -1.355101 -1.522492 1.126627 -2.506454 -0.128538 0.000000 0.000000 0.000000 5.043751 -2.034147 -1.150205 -13.052423 -5.999289 0.969428 -27.880182 -1.366815 -0.889796 0.000000 0.000000 0.000000 4.629102 -1.393078 -1.001816 0.973308 -6.553176 -17.456181 -7.224717 -0.195403 -3.747951 -1.549073 16.092803 -28.880048 54.725723 -59.283569 23.779438 0.000000 0.000000 0.000000 3.272077 -2.726178 -1.320142 5.766494 -13.017805 7.275916 -3.817951 0.465376 6.364253 -83.245191 -16.036478 1.651389 -124.309593 5.121026 156.922257 0.000000 0.000000 0.000000 
-6.738076 102.625572 6.942905 0.000000 0.000000 0.000000 -5.047520 12.789259 4.735241 -19.575028 -5.648883 10.292094 39.227392 -0.155763 -0.426471 -16.907001 -0.274557 -16.514076 -0.216563 0.215421 0.120551 0.000000 0.000000 0.000000 -4.873767 11.433726 4.798995 -16.034812 -18.021927 -18.493121 41.092747 1.649581 0.882799 -22.945933 -6.614354 8.637015 -1.117922 0.191106 -0.090779 0.000000 0.000000 0.000000 -4.843046 16.066328 4.948487 18.684239 -1.196527 2.256965 2.720211 -0.691331 -1.512929 1.585557 -1.782782 0.471462 0.000000 0.000000 0.000000 4.991980 -1.281074 -1.306838 -12.285917 -5.764617 1.123984 -29.106356 -1.482674 -0.872048 0.000000 0.000000 0.000000 4.735141 -0.758487 -1.153800 0.687920 -6.752886 -17.296069 -6.743529 0.255159 -3.694323 -2.217052 15.870949 -28.972587 54.391583 -59.660234 24.090287 0.000000 0.000000 0.000000 3.370508 -1.917186 -1.282465 6.027655 -12.633244 6.817741 -5.358037 0.400178 8.436944 -82.603543 -15.280103 1.719373 -127.001261 7.394127 159.197079 0.000000 0.000000 0.000000 
-6.262292 102.892380 6.383324 0.000000 0.000000 0.000000 -4.962410 11.837281 4.536456 -19.389626 -4.271313 10.667951 38.830452 -0.377502 -0.506081 -16.599711 -0.655299 -16.227413 -0.182096 0.196199 0.118088 0.000000 0.000000 0.000000 -4.832726 10.182245 4.596837 -16.148423 -16.497794 -18.191307 41.306242 1.459825 0.686075 -22.021471 -6.596621 8.661560 -0.920212 0.147238 -0.015147 0.000000 0.000000 0.000000 -4.813520 14.116573 5.125149 18.650856 -1.471549 1.841291 2.787684 -0.200668 -1.434525 1.763627 -1.354935 0.860075 0.000000 0.000000 0.000000 4.836031 -0.707635 -1.252703 -11.763223 -5.332008 0.350027 -29.916570 -2.133036 -0.888103 0.000000 0.000000 0.000000 4.833380 -0.352280 -1.166634 0.400564 -7.161402 -17.601939 -6.806114 0.734058 -3.812655 -3.006409 15.095871 -28.930619 52.834611 -58.631211 23.075746 0.000000 0.000000 0.000000 3.438190 -1.218328 -1.049062 6.442319 -12.018434 7.381797 -6.999896 0.286398 10.019676 -80.711539 -16.655660 2.431291 -129.374616 11.053245 160.892455 0.000000 0.000000 0.000000 
-5.781397 103.014549 5.977219 0.000000 0.000000 0.000000 -5.211150 11.223541 4.494462 -19.013590 -3.019344 10.778698 38.516000 -0.450783 -0.534537 -16.266961 -1.070342 -15.871036 -0.243812 0.167723 0.101795 0.000000 0.000000 0.000000 -5.076908 9.535964 4.535791 -15.839975 -15.275701 -18.141959 41.650395 1.253752 0.479329 -21.608960 -6.526169 8.886785 -0.652453 0.139464 -0.026924 0.000000 0.000000 0.000000 -5.152814 12.901269 5.367915 18.432853 -1.972322 1.278190 2.981012 0.018724 -1.289899 1.673944 -0.616907 1.104774 0.000000 0.000000 0.000000 4.706197 -0.428829 -0.990795 -11.488368 -4.719026 -0.975786 -30.033660 -2.962682 -0.891672 0.000000 0.000000 0.000000 4.977721 -0.250885 -1.022279 0.234999 -7.667470 -18.130988 -7.263667 1.051098 -3.906851 -4.059071 13.418956 -28.749598 50.414989 -56.144831 21.113672 0.000000 0.000000 0.000000 3.507229 -0.785518 -0.656084 6.852513 -11.090436 8.497369 -7.623385 0.356342 10.718577 -77.345042 -18.640046 4.080993 -132.575625 15.865718 162.781918 0.000000 0.000000 0.000000 
-5.265810 102.988121 5.699123 0.000000 0.000000 0.000000 -5.715589 10.702254 4.549465 -18.449873 -1.974939 10.721179 38.350013 -0.338660 -0.512022 -16.094289 -1.344930 -15.408403 -0.345145 0.129673 0.050473 0.000000 0.000000 0.000000 -5.610846 9.150560 4.556837 -15.205622 -14.397200 -18.236281 41.963333 1.111550 0.290545 -21.765895 -6.371301 9.203319 -0.258368 0.181340 -0.105680 0.000000 0.000000 0.000000 -5.807441 12.328443 5.515557 18.154870 -2.538426 0.683049 3.332598 0.006868 -1.092085 1.431109 0.168785 0.927891 0.000000 0.000000 0.000000 4.708994 -0.436600 -0.620895 -11.392365 -3.957983 -2.294462 -29.356474 -3.603783 -0.909831 0.000000 0.000000 0.000000 5.204530 -0.391246 -0.777170 0.207237 -8.284349 -18.391319 -7.681775 0.811036 -3.657112 -5.459004 11.021450 -28.638336 48.004274 -52.930599 19.275323 0.000000 0.000000 0.000000 3.646623 -0.649595 -0.199270 7.174737 -9.897407 9.607566 -7.138954 0.658225 9.562757 -71.787385 -19.945921 7.777572 -137.812823 21.756413 165.848154 0.000000 0.000000 0.000000 
